P2
8 8
255
0   0   0   0   0   0   0   0
32  32  32  32  32  32  32  32
64  64  64  64  64  64  64  64
96  96  96  96  96  96  96  96
128 128 128 128 128 128 128 128
160 160 160 160 160 160 160 160
192 192 192 192 192 192 192 192
224 224 224 224 224 224 224 224