P2
5 3
255
0 64 128 192 255 
255 192 128 64 0 
0 64 128 192 255 
